<svg viewBox="0 0 200 80" xmlns="http://www.w3.org/2000/svg">
  <!-- 1win logo - traced from reference -->
  
  <!-- The "1" -->
  <path d="
    M5 75 
    L5 35
    Q5 20, 20 20
    L30 20
    Q40 20, 40 35
    L40 75
    Q40 78, 35 78
    L10 78
    Q5 78, 5 75
    Z
    M20 20
    Q10 20, 10 15
    Q10 8, 20 8
    L25 8
    Q32 8, 32 15
    Q32 20, 25 20
    Z
  " fill="white"/>
  
  <!-- The "w" -->
  <path d="
    M50 20
    Q45 20, 45 28
    L45 75
    Q45 78, 50 78
    L55 78
    Q60 78, 62 72
    L75 45
    L88 72
    Q90 78, 95 78
    L100 78
    Q105 78, 105 75
    L105 28
    Q105 20, 100 20
    L95 20
    Q90 20, 90 28
    L90 55
    L80 35
    Q78 30, 75 30
    Q72 30, 70 35
    L60 55
    L60 28
    Q60 20, 55 20
    Z
  " fill="white"/>
  
  <!-- The "i" dot -->
  <circle cx="125" cy="12" r="10" fill="white"/>
  
  <!-- The "i" body -->
  <path d="
    M115 25
    Q115 20, 120 20
    L130 20
    Q135 20, 135 25
    L135 75
    Q135 78, 130 78
    L120 78
    Q115 78, 115 75
    Z
  " fill="white"/>
  
  <!-- The "n" -->
  <path d="
    M145 75
    L145 28
    Q145 20, 155 20
    Q175 20, 185 35
    L185 75
    Q185 78, 180 78
    L175 78
    Q170 78, 170 75
    L170 45
    Q165 30, 160 30
    L160 75
    Q160 78, 155 78
    L150 78
    Q145 78, 145 75
    Z
  " fill="white"/>
</svg>